<svg xmlns="http://www.w3.org/2000/svg" id="Layer_1" viewBox="0 0 3000 500"><defs><style>      .cls-1 {        fill: #2b4699;      }    </style></defs><g><path class="cls-1" d="M2038.5,72.86l68.44-40.91c4.23-2.53,9.61.42,9.76,5.35l4.82,160.1-84.9-115.17c-2.26-3.07-1.39-7.41,1.88-9.37Z"></path><path class="cls-1" d="M2152.12,91.03l80.82,5.34c4.93.33,7.68,5.84,4.97,9.97l-89.59,136.9-3.08-145.64c-.08-3.79,3.1-6.83,6.88-6.58Z"></path><path class="cls-1" d="M2300.55,101.13l59.16,55.32c3.61,3.37,2.24,9.38-2.47,10.87l-156.04,49.2,89.86-114.66c2.34-2.98,6.72-3.32,9.49-.73Z"></path><path class="cls-1" d="M1986.53,202.63l26.01-76.7c1.59-4.68,7.62-5.91,10.92-2.23l109.15,121.87-141.51-34.59c-3.68-.9-5.8-4.76-4.58-8.34Z"></path><path class="cls-1" d="M2352.78,286.88l19.32-78.66c1.18-4.8-3.25-9.09-8.01-7.76l-157.57,44.05,137.91,46.93c3.58,1.22,7.44-.89,8.35-4.57Z"></path><path class="cls-1" d="M2310.79,317.87l-30.89,74.87c-1.88,4.57-7.99,5.41-11.04,1.53l-101.08-128.65,138.99,43.63c3.61,1.13,5.48,5.12,4.03,8.62Z"></path><path class="cls-1" d="M1944.66,305.66l-20.82-76.96c-1.29-4.75,3.01-9.14,7.79-7.95l155.41,38.76-133.87,50.51c-3.57,1.34-7.51-.68-8.51-4.35Z"></path><path class="cls-1" d="M1996.44,395.9l-57.58-55.15c-3.56-3.41-2.14-9.38,2.57-10.83l153.1-47.08-88.55,112.39c-2.36,2.99-6.78,3.3-9.53.67Z"></path><path class="cls-1" d="M2130.63,420.22l-80.49-9.01c-4.91-.55-7.41-6.18-4.52-10.19l95.72-132.69-3.54,145.63c-.09,3.79-3.41,6.68-7.17,6.26Z"></path><path class="cls-1" d="M2243.52,428.43l-70.5,39.86c-4.3,2.43-9.63-.67-9.63-5.61l-.19-163.61,82.47,120.08c2.14,3.12,1.15,7.41-2.14,9.27Z"></path></g><g><path class="cls-1" d="M2428.93,151.82h91.37c9.2-.27,18.4-.49,27.6-.5,64.72-.11,129.43-.03,194.15-.07,14.86,0,29.73-.35,44.59-.2,5.03.05,8.01-1.65,9.57-4.75l-58.33-58.33c-65.85-.04-131.7-.14-197.55.19-18.4.09-37.06.78-55.14,3.85-26.31,4.47-50.22,23.32-63.43,47.95-2.88,5.37,1.09,11.87,7.18,11.87Z"></path><path class="cls-1" d="M2802.32,300.9c-2.9-27.47-14.94-49.46-37.36-66.25-19.82-14.85-42.5-19.81-66.46-19.99-50.15-.37-220.26-.35-266.77-.34-5.83,0-9.83,6.01-7.43,11.32,9.47,20.94,24.65,36.71,48.01,45.43,14.41,5.38,29.16,7.7,44.35,7.73,61.38.11,122.76.02,184.13.09,4.86,0,9.73.41,14.56.95,13.02,1.46,20.18,10.68,23.71,21.35,3.54,10.71.76,21.51-7.92,30.1-8.11,8.03-18.17,9.78-28.95,9.77-89.4,0-178.81,0-268.21,0-1.35,0-2.7.03-4.05.16-7.16.68-11.21,2.6-13.26,6.8l56.03,56.03c33.32,0,66.64.01,99.95.01v-.02c45.97,0,91.94-.23,137.91.1,21.37.15,39.75-7.35,55.74-20.38,26.19-21.34,39.64-48.47,36.02-82.84Z"></path></g><path class="cls-1" d="M1884.35,390.63c-.81-1.86-1.81-3.64-2.82-5.41-20.6-36.25-41.2-72.51-61.86-108.73-2.62-4.59-2.83-8.04,3.1-10.03,30.86-10.35,54.59-54.1,52.15-89.43-2.84-41.12-31.19-75.12-71.86-84.08-19.03-4.19-39.17-4.27-58.83-4.62-37.21-.67-74.45-.34-111.67-.15-27.39.14-54.77.41-82.16.71l-55.46,55.46c1.38,4.56,4.88,6.61,11.03,6.77,10.01.25,20.02.43,30.03.47,81.63.32,163.26.56,244.9.94,16.31.08,29.4,12.9,30.63,29.38,1.11,14.92-10.81,29.2-26.53,31.21-7.35.94-14.81,1.35-22.22,1.36-82.67.12-165.34.1-248.01.22-4.05,0-8.22.53-12.11,1.62-5.41,1.51-8.51,5.14-8.5,11.17.05,40.13.04,80.26.06,120.39l55.86,55.86c6.9-1.12,7.56-4.82,7.57-16.62,0-22.36.02-44.71.02-67.07,0-13.39,0-26.78,0-40.44.83-.2,1.8-.63,2.77-.63,54.17,0,108.35-.21,162.51.27,14.85.13,27.52,6.54,35.32,19.68,18.44,31.05,36.8,62.15,54.61,93.55,4.56,8.04,9.81,12.15,19.31,11.85,14.36-.45,28.75.02,43.13-.04,8.77-.04,12.47-5.72,9.04-13.66Z"></path><path class="cls-1" d="M1438.91,136.07c-15.53-22.89-36.26-38.19-63.81-42.36-16.91-2.56-34.26-3.13-51.41-3.12-65.93.06-131.85.46-197.78.89l-52.37,52.37c.9,8.57,3.62,9.49,15.27,9.55,89.35.47,178.71.9,268.06,1.37,20.88.11,33.15,12.76,32.6,33.48-.35,12.91-11.85,25.74-24.68,27.03-8.15.82-16.37,1.45-24.55,1.45-83.72.05-167.44-.05-251.16-.12-11.6,0-14.56,2.27-16.56,13.4-.49,2.72-.52,5.55-.52,8.33,0,36.98.04,73.97.08,110.95l56.62,56.62c5.11-1.16,6.75-4.45,6.76-11.74.03-34.3.01-68.61.01-102.91v-10.02c5.69,0,10.03.02,14.37,0,71.61-.47,143.22-.46,214.82-1.62,34.32-.56,59.89-19.11,76.01-47.28,17.92-31.32,19.87-64.4-1.76-96.28Z"></path><path class="cls-1" d="M1014.93,359.14c-.04-12.45-2.47-15.03-15.05-15.94-1.79-.13-3.59-.04-5.39-.04-96.78,0-193.56-.11-290.34.19-8.13.02-10-2.57-9.71-9.99.54-13.95.18-27.94.19-41.91q0-10.47,10.58-10.49c72.39,0,144.79.08,217.18-.14,7.06-.02,14.35-1.2,21.04-3.36,2.93-.94,6.35-5.59,6.54-8.73.75-12.4.62-24.88.21-37.32-.37-11.09-4.68-14.83-15.83-14.83-93.96-.01-187.91,0-281.86.03-3.07,0-6.18.06-9.19.57-10.69,1.82-12.28,3.77-12.28,14.58,0,37.29,0,74.59,0,111.88l62.53,62.53c42.73,0,85.46,0,128.19,0,58.79-.02,117.57-.02,176.36-.02,13.43,0,16.62-2.99,16.85-16.54.17-10.16.03-20.32,0-30.48Z"></path><path class="cls-1" d="M644.94,91.34c-8.56.03-13.57,4.53-13.82,12.83-.35,11.16-.42,22.36,0,33.52.42,11.23,4.17,14.57,15.54,15.2,2.56.14,5.13.09,7.7.09,56.21,0,112.42,0,168.62,0v.38c34.9,0,69.81-.12,104.71.04,23.09.11,46.18.69,69.27.95,10.31.12,14.67-2.13,16.18-9.33l-54.69-54.69c-104.5.26-209.01.62-313.51,1Z"></path><g><path class="cls-1" d="M189.87,151.78h91.37c9.2-.27,18.4-.49,27.6-.5,64.72-.11,129.43-.03,194.15-.07,14.86,0,29.73-.35,44.59-.2,5.03.05,8.01-1.65,9.57-4.75l-58.33-58.33c-65.85-.04-131.7-.14-197.55.19-18.4.09-37.06.78-55.14,3.85-26.31,4.47-50.22,23.32-63.43,47.95-2.88,5.37,1.09,11.87,7.18,11.87Z"></path><path class="cls-1" d="M563.26,300.86c-2.9-27.47-14.94-49.46-37.36-66.25-19.82-14.85-42.5-19.81-66.46-19.99-50.15-.37-220.26-.35-266.77-.34-5.83,0-9.83,6.01-7.43,11.32,9.47,20.94,24.65,36.71,48.01,45.43,14.41,5.38,29.16,7.7,44.35,7.73,61.38.11,122.76.02,184.13.09,4.86,0,9.73.41,14.56.95,13.02,1.46,20.18,10.68,23.71,21.35,3.54,10.71.76,21.51-7.92,30.1-8.11,8.03-18.17,9.78-28.95,9.77-89.4,0-178.81,0-268.21,0-1.35,0-2.7.03-4.05.16-7.16.68-11.21,2.6-13.26,6.8l56.03,56.03c33.32,0,66.64.01,99.95.01v-.02c45.97,0,91.94-.23,137.91.1,21.37.15,39.75-7.35,55.74-20.38,26.19-21.34,39.64-48.47,36.02-82.84Z"></path></g></svg>