<?xml version="1.0" encoding="UTF-8"?>
<svg id="Layer_1" data-name="Layer 1" xmlns="http://www.w3.org/2000/svg" viewBox="0 0 548 213.73">
  <defs>
    <style>
      .cls-1 {
        fill: #dc6e27;
      }

      .cls-2 {
        fill: #ffce1f;
      }

      .cls-3 {
        fill: #b3bc35;
      }

      .cls-4 {
        fill: #b1e0e4;
      }

      .cls-5 {
        fill: #3b6c34;
      }

      .cls-6 {
        fill: #bc3738;
      }

      .cls-7 {
        fill: #68b4a2;
      }

      .cls-8 {
        fill: #daeac1;
      }
    </style>
  </defs>
  <path class="cls-5" d="M60.8,88.24c0-11.06-3.58-15.93-14.65-15.78l-9.82.14c-.62,0-1.24.15-1.24.89v38.05h25.71v-23.31ZM78.1,129.1H17.63c-6.54,0-8.57-2.07-8.57-8.27l-.06-65.74,46.66-.03c18.07,0,31.17,8.85,31.17,28.16v37.61c0,5.75-2.49,8.27-8.73,8.27M345.76,103.02l-.71-.92s.02-.01.04-.02l-32.6-44.82-1.71-2.2h-22.45c-1.99,0-3.9,0-5.67,0,.57.85,2.55,3.56,3.34,4.71l15.73,21.83c-9.81,5.6-16.68,13.42-16.68,28.61v18.88h26.65v-27.73c0-2.07,1.09-4.43,4.05-.45l21.67,28.18h27.62l-19.28-26.07ZM363.13,69.66l-.16-14.6h-26.49v24.77c0,.08,0,.16,0,.24l13.65,18.77c8.57-6.8,13.13-18.09,13-29.19M279.5,55c-7.85,0-44.12.06-44.12.06v17.4h13.88c-10.44,3.7-11.38,10.47-10.13,17.7l6.86,38.94h26.49l-6.07-35.99c-1.55-9.43-5.29-20.51,9.04-20.51v-.14s1.04-4.6,4.05-17.46M201.01,55.06h26.19v74.03h-26.19V55.06ZM166.25,129.1v-40.42c0-9.43-4.67-16.22-14.81-16.22l-22.29.14c0-5.29-.15-11.3-.15-17.54h31.95c18.55,0,31.43,7.97,31.43,26.99,0,14.89-.1,29.79.05,47.05h-26.18ZM95.4,100.48v-45.48h26.4l-.06,39.88c-11.9,2.57-15,3.25-26.34,5.6"/>
  <path class="cls-5" d="M356.48,166.44c-1.5,0-2.4-.25-2.83-.37.04-.64.27-2.05.43-2.54.27.13,1.54.36,2.05.36,3.3,0,5.35-2.57,5.35-7.49s-1.46-7.93-4.8-7.93c-3.59,0-4.88,2.69-5.71,9.26l-1.03,8.43h-3.77l1.06-8.5c.59-5,1.86-7.62,4.13-9.11h-4.85c-.03-.53-.08-.64-.08-1.17,0-.47.05-.97.08-1.45h10.68c5.11,0,8.26,3.51,8.26,10.47,0,6.29-3.35,10.04-8.98,10.04M339.08,166.16v-12.01c0-3.59-1.34-5.56-4.69-5.56h-5.63c-.11-.86-.11-1.73,0-2.66h6.78c4.76,0,7.36,2.66,7.36,8.31v11.93h-3.82ZM322.71,166.16c-.44-1.25-.79-3.59-.91-4.76-.89,2.82-2.86,5.2-5.94,5.2-.56,0-1.46-.15-1.82-.43.08-.86.36-2.11.55-2.66.48.2,1.18.24,1.62.24,2.48,0,5.31-3.22,5.31-7.13v-5.03c0-1.9-.94-2.98-3.06-2.98h-3c-.03-.48-.08-1.01-.08-1.5s.05-.63.08-1.16h4.17c3.59,0,5.68,1.78,5.68,5.44v6.41c0,3.34.55,6.24,1.06,8.38h-3.66ZM311.49,156.4c-1.1.64-2.6,1.05-3.85,1.26v-11.73h3.85v10.51-.04ZM295.77,166.16h-4.53c-4.73,0-8.15-3.07-8.15-8.71v-11.52h3.86v11.85c0,.88.59,1.37,1.34,1.37,1.34,0,3.35-1.69,3.35-6.97v-6.25h3.78v6.32c0,4.48-2.05,8.87-7.56,9.11.83,1.4,2.2,2.17,4.16,2.17h2.99c3.35,0,5.05-2.42,5.05-6v-11.6h3.86v11.52c0,5.64-3.39,8.71-8.15,8.71M279.15,156.4c-1.1.64-2.6,1.05-3.85,1.26v-11.73h3.85v10.51-.04ZM267.74,153.98c0-2.86-1.15-5.4-4.29-5.4h-5c-.2,0-.36.12-.36.36v14.18c0,.28.17.45.4.45h8.86c.24,0,.4-.17.4-.45v-9.14ZM269.59,166.16h-13.35c-1.42,0-1.98-1.22-1.98-2.22v-15.83c0-1.1.83-2.18,2.83-2.18h7.49c4.26,0,6.97,3.1,6.97,7.49v10.52c0,1.13-.47,2.22-1.96,2.22M232.55,166.16h-4.52c-4.73,0-8.15-3.07-8.15-8.71v-11.52h3.86v11.85c0,.88.59,1.37,1.33,1.37,1.35,0,3.35-1.69,3.35-6.97v-6.25h3.77v6.32c0,4.48-2.05,8.87-7.56,9.11.83,1.4,2.21,2.17,4.18,2.17h2.99c3.35,0,5.04-2.42,5.04-6v-11.6h3.85v11.52c0,5.64-3.39,8.71-8.15,8.71M212.32,166.16v-12.17c0-2.86-1.13-5.4-4.3-5.4h-4.2c-.2,0-.36.12-.36.36v17.21h-3.81v-18.05c0-1.1.82-2.18,2.83-2.18h6.69c4.21,0,6.97,3.1,6.97,7.49v12.74h-3.82ZM195.72,156.4c-1.11.64-2.6,1.05-3.86,1.26v-11.73h3.86v10.51-.04ZM187.93,156.4c-1.1.64-2.6,1.05-3.85,1.26v-11.73h3.85v10.51-.04ZM176.52,153.98c0-2.86-1.14-5.4-4.29-5.4h-5c-.19,0-.36.12-.36.36v14.18c0,.28.16.45.39.45h8.86c.24,0,.39-.17.39-.45v-9.14ZM178.37,166.16h-13.34c-1.42,0-1.97-1.22-1.97-2.22v-15.83c0-1.1.82-2.18,2.82-2.18h7.49c4.25,0,6.97,3.1,6.97,7.49v10.52c0,1.13-.48,2.22-1.97,2.22M141.42,166.16h-6.7c-.04-.49-.08-.94-.08-1.37,0-.57.04-.73.08-1.25h5.95c3.98,0,5-4.39,5-7.65s-.98-7.29-5.16-7.29h-5.67c-.08-.44-.12-.93-.12-1.42,0-.56.09-.72.12-1.25h6.45c5.95,0,8.39,4.27,8.39,9.95s-2.83,10.28-8.26,10.28M131.14,166.16h-3.39l-6.58-9.16c-.36-.49-.9-1.25-1.41-1.25-1.38,0-2.09,2.46-2.09,5.44v4.97h-3.7v-3.59c0-3.58,1.22-7.33,4.73-8.94l-5.2-7.13c-.08-.12-.12-.24-.12-.33,0-.15.12-.24.38-.24h3.47l6.58,9.06c.36.49.91,1.34,1.46,1.34,1.38,0,2.05-2.87,2.05-5.84v-4.56h3.75v3.59c0,3.59-1.42,7.57-4.73,8.94l5.12,7.06c.07.15.15.28.15.4,0,.16-.15.25-.47.25M106.11,145.93h3.86v26.11h-3.86v-26.11ZM92.58,166.16h-3.38l-6.58-9.16c-.35-.49-.9-1.25-1.41-1.25-1.38,0-2.09,2.46-2.09,5.44v4.97h-3.7v-3.59c0-3.58,1.21-7.33,4.72-8.94l-5.2-7.13c-.08-.12-.12-.24-.12-.33,0-.15.12-.24.39-.24h3.47l6.57,9.06c.36.49.91,1.34,1.46,1.34,1.38,0,2.05-2.87,2.05-5.84v-4.56h3.74v3.59c0,3.59-1.41,7.57-4.73,8.94l5.12,7.06c.07.15.15.28.15.4,0,.16-.15.25-.48.25M69.44,166.16h-7.36c-.04-.53-.04-.69-.04-1.22,0-.48,0-.97.08-1.41h5.28c.31,0,.39-.16.39-.4v-11.97c0-1.37-.2-2.57-2.25-2.57h-2.41c-.03-.48-.07-1.01-.07-1.5s.04-.63.07-1.16h3.98c2.64,0,4.49,1.36,4.49,5.03v12.77c0,1.57-.71,2.43-2.17,2.43M50.94,166.16h-4.52c-4.73,0-8.15-3.07-8.15-8.71v-11.52h3.85v11.85c0,.88.6,1.37,1.34,1.37,1.34,0,3.35-1.69,3.35-6.97v-6.25h3.77v6.32c0,4.48-2.04,8.87-7.56,9.11.83,1.4,2.21,2.17,4.18,2.17h2.99c3.35,0,5.05-2.42,5.05-6v-11.6h3.86v11.52c0,5.64-3.39,8.71-8.15,8.71M34.33,156.4c-1.1.64-2.6,1.05-3.85,1.26v-11.73h3.85v10.51-.04ZM22.92,153.98c0-2.86-1.14-5.4-4.29-5.4h-5c-.19,0-.36.12-.36.36v14.18c0,.28.16.45.39.45h8.86c.24,0,.39-.17.39-.45v-9.14ZM24.77,166.16h-13.34c-1.42,0-1.97-1.22-1.97-2.22v-15.83c0-1.1.83-2.18,2.83-2.18h7.48c4.26,0,6.97,3.1,6.97,7.49v10.52c0,1.13-.47,2.22-1.96,2.22"/>
  <polygon class="cls-5" points="463.96 93.9 463.96 171.99 539 93.9 539 93.9 463.96 93.9"/>
  <polygon class="cls-2" points="489.23 93.9 539 93.9 539 93.89 488.84 41.7 489.23 93.9"/>
  <polygon class="cls-1" points="463.96 67.59 489.23 93.9 488.84 41.69 463.96 67.59"/>
  <polygon class="cls-6" points="463.96 67.59 463.96 93.89 489.23 93.89 463.96 67.59"/>
  <polygon class="cls-4" points="433.63 41.7 408.74 67.59 458.51 67.59 433.63 41.7"/>
  <polygon class="cls-7" points="408.75 67.59 383.47 93.89 433.24 93.89 458.51 67.59 408.75 67.59"/>
  <rect class="cls-8" x="458.51" y="67.59" width="5.44" height="104.4"/>
  <polygon class="cls-3" points="383.47 93.9 458.51 171.99 458.51 93.9 383.47 93.9"/>
  <polygon class="cls-8" points="433.24 93.9 458.51 67.59 458.51 93.9 433.24 93.9"/>
</svg>