<?xml version="1.0" encoding="UTF-8"?>
<svg id="Layer_1" data-name="Layer 1" xmlns="http://www.w3.org/2000/svg" viewBox="0 0 548 213.73">
  <defs>
    <style>
      .cls-1 {
        fill: #049648;
      }

      .cls-1, .cls-2 {
        fill-rule: evenodd;
      }

      .cls-2 {
        fill: #144a88;
      }
    </style>
  </defs>
  <path class="cls-1" d="M412.9,62.28c67.38,25.21,64.94,61.81,64.94,73.87h45.14c0-7.87,3.12-32.66-35.79-57.06-65.7-41.2-208.65-51.24-237.52-54.49,68.32,0,209.05,25.35,251.89,59.37,33.23,26.4,27.97,52.18,27.97,52.18h15.82c0-15.46,4.07-58.91-123.17-90.18C294.94,14.68,75.32,19.71,31.25,22.96c301.52,0,368.13,34.52,377.08,37.5-1.18,0,4.67,1.89,4.56,1.81Z"/>
  <g>
    <path class="cls-1" d="M37.81,159.77c1.54-2.84,2.62-6.67-2.19-7.55-2.85,0-3.73,1.31-4.93,4.15-2.08,5.26-4.15,10.28-5.8,15.64-.98,3.28-4.59,15.21,0,12.14,2.3-1.53,10.61-18.92,12.03-22.53.22-.77.55-1.32.88-1.86ZM26,193.79c1.43-2.3,1.21-5.58-2.52-7.33-3.28-.55-5.68,2.19-6.45,3.39-3.06,5.03,5.25,10.06,8.97,3.94Z"/>
    <path class="cls-1" d="M71.88,184.27c.45-.44.77-1.2.88-2.08.43-4.05-.66-6.34-2.41-9.41-1.75-2.96-3.5-5.69-5.91-8.2-1.86-1.97-7.33-1.2-8.54.87-1.75,6.79-4.04,14.55-6.78,21.33-2.73,6.89-5.79,12.03-13.89,9.18-.66-.21-1.42.77-1.42,1.42.33,2.3.66,2.3,2.62,4.49,10.94,5.14,16.63-5.79,20.45-14.55,2.3-5.14,4.05-8.97,5.57-12.59.56-.33,1.21.66,2.19,1.87,1.64,1.75,3.28,4.48,4.81,7.43.55,1.09,1.75.87,2.4.22Z"/>
    <path class="cls-1" d="M81.2,180c4.27-2.95,7.66-9.18,9.51-14.22.99-3.82-2.62-7.32-5.13-4.7-2.74,3.83-6.24,11.7-7.66,16.19-.55,2.84.44,4.81,3.28,2.73Z"/>
    <path class="cls-1" d="M106.92,188.65c6.24,0,9.95-5.69,10.83-9.41,1.2-5.03-4.81-11.6-10.83-14.11-2.84-1.1-6.78-1.97-9.41-1.64-1.64.21-3.39,1.64-3.06,2.62.44,1.42,1.86,1.96,3.06,2.4,2.84.98,5.58,2.63,7.76,4.15,1.75,1.2,6.13,5.91,4.93,7.54-3.83,1.97-8.64-1.75-11.93-3.17-2.84-.54-3.72.55-4.92,2.85-1.75,3.17-3.5,6.35-5.47,9.74-.55.99-.77,3.6,1.31,2.51,3.72-1.31,5.91-4.15,8.09-7.22,2.52,1.32,6.79,3.72,9.63,3.72Z"/>
    <path class="cls-1" d="M164.04,188.65c6.23-1.42,10.28-7.98,10.93-10.94.77-3.39-.87-7-4.59-9.96-3.18-2.51-7.55-3.72-12.69-3.94-3.39-.11-10.82.88-13.23,3.83-1.09,1.32-.33,2.96,1.75,2.63,4.27-.77,8.64-.87,12.26-.11,9.95,2.08,9.3,8.42,4.04,15.75-1.31,2.19-1.09,3.39,1.53,2.74ZM145.12,190.07c5.26-1.2,9.84-6.23,11.15-12.69.12-3.72-5.24-5.91-7.64-2.84-1.21,2.74-3.72,9.18-5.15,12.69-.55,1.96-.22,3.06,1.65,2.84Z"/>
    <path class="cls-1" d="M188.22,168.52c2.4-5.91,8.09-12.47,13.02-16.29,3.06-2.52-.66-3.72-1.87-3.17-2.62,1.09-7.65,4.81-10.16,7.43-2.74,2.84-7.23,7.98-9.52,13.34-.87,2.08,1.86,6.79,4.27,6.67,1.97-.11,3.83-.22,6.79.33,1.86.21,12.8,2.52,10.83,6.45-.44.88-3.94,2.85-6.24,3.4-6.77,1.53-11.93,2.08-19.36.32-2.4-.65-3.83,2.52-1.2,3.5,9.95,3.61,26.69,2.84,34.34-6.23,2.51-2.95,1.53-6.67-1.31-9.19-3.06-2.52-9.18-7.11-19.58-6.56Z"/>
  </g>
  <g>
    <path class="cls-2" d="M135.1,142.48l15.61-52.16c6.86-22.94-5.29-30.7-29.93-30.7H51.37c-1.53,7.1-1.08,15.35,2.82,19.97h43.42c10.95,0,14.3,4.46,11.64,13.37l-14.82,49.52h40.67Z"/>
    <path class="cls-2" d="M70.38,142.48l14.91-49.85c-11.49.5-31.1,2.64-41.87,8.59l-12.34,41.27h39.3Z"/>
    <path class="cls-2" d="M213.18,136.54l14.31-47.87c5.94-19.81-2.25-29.05-27.09-29.05h-32.66c-1.54,7.1-1.36,15.68,1.46,19.97h9.58c7.43,0,10.06,3.63,8.09,10.23l-9.68,32.35h-21.51c-6.76,4.95-13.04,14.86-15.65,20.31h64.34c4.69,0,7.58-1.82,8.82-5.94Z"/>
    <path class="cls-2" d="M261.34,142.69h-41.85l24.79-82.86h3.13c.58,8.96,8.03,16.05,17.15,16.05s16.56-7.09,17.15-16.05h4.42l-24.79,82.86Z"/>
    <path class="cls-2" d="M402.3,59.62h-110.49c-1.54,7.1-1.07,15.35,2.83,19.97h36.18c3.91,0,3.76.5,2.77,3.79l-17.68,59.1h40.67l17.93-59.92c.6-1.98,1.88-2.97,4.02-2.97h9.19c6.36-4.29,11.87-14.2,14.58-19.97Z"/>
  </g>
  <path class="cls-1" d="M249.34,57.27c0-8.52,6.91-15.42,15.42-15.42s15.42,6.9,15.42,15.42-6.9,15.42-15.42,15.42-15.42-6.9-15.42-15.42Z"/>
</svg>