<?xml version="1.0" encoding="UTF-8"?>
<svg id="Layer_1" data-name="Layer 1" xmlns="http://www.w3.org/2000/svg" xmlns:xlink="http://www.w3.org/1999/xlink" viewBox="0 0 548 213.73">
  <defs>
    <style>
      .cls-1 {
        fill: none;
      }

      .cls-2 {
        fill: #00bdeb;
      }

      .cls-3 {
        fill: url(#linear-gradient-8);
      }

      .cls-4 {
        fill: url(#linear-gradient-7);
      }

      .cls-5 {
        fill: url(#linear-gradient-5);
      }

      .cls-6 {
        fill: url(#linear-gradient-6);
      }

      .cls-7 {
        fill: url(#linear-gradient-9);
      }

      .cls-8 {
        fill: url(#linear-gradient-4);
      }

      .cls-9 {
        fill: url(#linear-gradient-3);
      }

      .cls-10 {
        fill: url(#linear-gradient-2);
      }

      .cls-11 {
        fill: url(#linear-gradient);
      }

      .cls-12 {
        fill: #234b78;
      }

      .cls-13 {
        clip-path: url(#clippath-17);
      }

      .cls-14 {
        clip-path: url(#clippath-19);
      }

      .cls-15 {
        clip-path: url(#clippath-11);
      }

      .cls-16 {
        clip-path: url(#clippath-16);
      }

      .cls-17 {
        clip-path: url(#clippath-18);
      }

      .cls-18 {
        clip-path: url(#clippath-10);
      }

      .cls-19 {
        clip-path: url(#clippath-15);
      }

      .cls-20 {
        clip-path: url(#clippath-13);
      }

      .cls-21 {
        clip-path: url(#clippath-14);
      }

      .cls-22 {
        clip-path: url(#clippath-12);
      }

      .cls-23 {
        clip-path: url(#clippath-1);
      }

      .cls-24 {
        clip-path: url(#clippath-3);
      }

      .cls-25 {
        clip-path: url(#clippath-4);
      }

      .cls-26 {
        clip-path: url(#clippath-2);
      }

      .cls-27 {
        clip-path: url(#clippath-7);
      }

      .cls-28 {
        clip-path: url(#clippath-6);
      }

      .cls-29 {
        clip-path: url(#clippath-9);
      }

      .cls-30 {
        clip-path: url(#clippath-8);
      }

      .cls-31 {
        clip-path: url(#clippath-5);
      }

      .cls-32 {
        fill: #d5e04b;
      }

      .cls-33 {
        fill: url(#linear-gradient-10);
      }

      .cls-34 {
        fill: url(#linear-gradient-11);
      }

      .cls-35 {
        fill: url(#linear-gradient-12);
      }

      .cls-36 {
        fill: url(#linear-gradient-13);
      }

      .cls-37 {
        fill: url(#linear-gradient-19);
      }

      .cls-38 {
        fill: url(#linear-gradient-14);
      }

      .cls-39 {
        fill: url(#linear-gradient-20);
      }

      .cls-40 {
        fill: url(#linear-gradient-15);
      }

      .cls-41 {
        fill: url(#linear-gradient-16);
      }

      .cls-42 {
        fill: url(#linear-gradient-17);
      }

      .cls-43 {
        fill: url(#linear-gradient-18);
      }

      .cls-44 {
        clip-path: url(#clippath);
      }
    </style>
    <clipPath id="clippath">
      <polygon class="cls-1" points="441.14 60.57 453.15 85.18 467.08 59.05 455.06 34.45 441.14 60.57"/>
    </clipPath>
    <linearGradient id="linear-gradient" x1="-138.28" y1="183.78" x2="-137.28" y2="183.78" gradientTransform="translate(-2691.68 -4146.76) rotate(-180) scale(22.89 -22.89)" gradientUnits="userSpaceOnUse">
      <stop offset="0" stop-color="#0086c8"/>
      <stop offset=".4" stop-color="#005fa5"/>
      <stop offset="1" stop-color="#2e4267"/>
    </linearGradient>
    <clipPath id="clippath-1">
      <path class="cls-1" d="M444.22,26.22c-5.28.38-10.65.75-16.08,1.14-6.64.46-13.38.93-20.26,1.41,2.42,5.64,4.85,11.37,7.34,17.17,2.51,5.88,5.08,11.86,7.67,17.92,7.05-.83,13.95-1.69,20.75-2.52,6.63-.8,13.15-1.6,19.56-2.36-2.76-5.7-5.45-11.31-8.12-16.82-2.58-5.39-5.15-10.69-7.68-15.93h-3.17Z"/>
    </clipPath>
    <linearGradient id="linear-gradient-2" x1="-143.37" y1="185.42" x2="-142.37" y2="185.42" gradientTransform="translate(-5901.14 -8182.29) rotate(-180) scale(44.37 -44.37)" gradientUnits="userSpaceOnUse">
      <stop offset="0" stop-color="#d5e04b"/>
      <stop offset="1" stop-color="#fff"/>
    </linearGradient>
    <clipPath id="clippath-2">
      <polygon class="cls-1" points="467.08 59.05 453.15 85.18 453.16 85.18 479.83 81.97 493.77 55.85 493.77 55.84 467.08 59.05"/>
    </clipPath>
    <linearGradient id="linear-gradient-3" x1="-134.85" y1="174.77" x2="-133.85" y2="174.77" gradientTransform="translate(-1878.5 1873.31) rotate(90) scale(13.46 -13.46)" gradientUnits="userSpaceOnUse">
      <stop offset="0" stop-color="#0086c8"/>
      <stop offset=".57" stop-color="#005fa5"/>
      <stop offset="1" stop-color="#2e4267"/>
    </linearGradient>
    <clipPath id="clippath-3">
      <polygon class="cls-1" points="456.35 88.97 473.96 125.11 487.89 98.97 470.27 62.83 456.35 88.97"/>
    </clipPath>
    <linearGradient id="linear-gradient-4" x1="-144.13" y1="184.6" x2="-143.13" y2="184.6" gradientTransform="translate(-6771.52 -9216.56) rotate(-180) scale(50.44 -50.44)" gradientUnits="userSpaceOnUse">
      <stop offset="0" stop-color="#abd03e"/>
      <stop offset=".47" stop-color="#378e46"/>
      <stop offset="1" stop-color="#10412c"/>
    </linearGradient>
    <clipPath id="clippath-4">
      <path class="cls-1" d="M488.5,60.51c-5.95.77-12.03,1.54-18.23,2.32,2.83,5.82,5.71,11.7,8.63,17.67,2.95,6.06,5.95,12.23,8.99,18.47,6.3-1.18,12.49-2.33,18.54-3.46,5.95-1.12,11.81-2.22,17.56-3.28-3.13-5.86-6.24-11.62-9.28-17.33-3.01-5.62-5.96-11.12-8.9-16.58-5.67.7-11.44,1.45-17.31,2.19"/>
    </clipPath>
    <linearGradient id="linear-gradient-5" x1="-143.65" y1="185.31" x2="-142.65" y2="185.31" gradientTransform="translate(-6164.01 -8548.08) rotate(-180) scale(46.55 -46.55)" xlink:href="#linear-gradient-2"/>
    <clipPath id="clippath-5">
      <polygon class="cls-1" points="531.78 129.92 504.53 137.2 494.41 156.17 496.34 161.8 518 156.01 531.89 129.89 531.78 129.92"/>
    </clipPath>
    <linearGradient id="linear-gradient-6" x1="-141.89" y1="178.73" x2="-140.89" y2="178.73" gradientTransform="translate(-3701.49 3474.24) rotate(90) scale(23.58 -23.58)" xlink:href="#linear-gradient-3"/>
    <clipPath id="clippath-6">
      <polygon class="cls-1" points="487.89 98.97 473.97 125.1 473.97 125.11 510.07 118.34 523.99 92.23 487.89 98.97"/>
    </clipPath>
    <linearGradient id="linear-gradient-7" x1="-143.25" y1="179" x2="-142.25" y2="179" gradientTransform="translate(-4355.11 3976.81) rotate(90) scale(27.12 -27.12)" xlink:href="#linear-gradient-4"/>
    <clipPath id="clippath-7">
      <polygon class="cls-1" points="422.88 63.86 408.94 89.98 449.25 85.09 463.18 58.98 463.18 58.98 422.88 63.86"/>
    </clipPath>
    <linearGradient id="linear-gradient-8" x1="-144.65" y1="179.55" x2="-143.65" y2="179.55" gradientTransform="translate(-5273.92 4657.27) rotate(90) scale(31.8 -31.8)" xlink:href="#linear-gradient-4"/>
    <clipPath id="clippath-8">
      <polygon class="cls-1" points="393.94 54.9 408.94 89.98 422.88 63.86 407.87 28.77 393.94 54.9"/>
    </clipPath>
    <linearGradient id="linear-gradient-9" x1="-143.86" y1="185.53" x2="-142.86" y2="185.53" gradientTransform="translate(-6577.53 -8983.77) rotate(180) scale(48.74 -48.74)" gradientUnits="userSpaceOnUse">
      <stop offset="0" stop-color="#abd03e"/>
      <stop offset=".41" stop-color="#378e46"/>
      <stop offset="1" stop-color="#10412c"/>
    </linearGradient>
    <clipPath id="clippath-9">
      <polygon class="cls-1" points="388.05 117.82 374.12 143.94 421.89 134.91 435.83 108.79 388.05 117.82"/>
    </clipPath>
    <linearGradient id="linear-gradient-10" x1="-145.17" y1="180.34" x2="-144.17" y2="180.34" gradientTransform="translate(-6112.1 5352.86) rotate(90) scale(36.14 -36.14)" xlink:href="#linear-gradient-4"/>
    <clipPath id="clippath-10">
      <polygon class="cls-1" points="382.29 68.3 368.36 94.43 368.36 94.43 403.41 90.15 417.34 64.03 417.33 64.02 382.29 68.3"/>
    </clipPath>
    <linearGradient id="linear-gradient-11" x1="-142.29" y1="177.65" x2="-141.29" y2="177.65" gradientTransform="translate(-3645.11 3303.69) rotate(90) scale(22.73 -22.73)" xlink:href="#linear-gradient-3"/>
    <clipPath id="clippath-11">
      <polygon class="cls-1" points="358.24 65.48 358.24 66.1 368.36 94.43 382.29 68.3 372.04 39.6 358.24 65.48"/>
    </clipPath>
    <linearGradient id="linear-gradient-12" x1="-142.16" y1="184.92" x2="-141.16" y2="184.92" gradientTransform="translate(-4783 -6658.27) rotate(-180) scale(36.37 -36.37)" xlink:href="#linear-gradient"/>
    <clipPath id="clippath-12">
      <polygon class="cls-1" points="358.95 101.51 374.12 143.94 388.05 117.82 372.9 75.4 358.95 101.51"/>
    </clipPath>
    <linearGradient id="linear-gradient-13" x1="-144.45" y1="185.43" x2="-143.45" y2="185.43" gradientTransform="translate(-7540.98 -10087.93) rotate(-180) scale(54.99 -54.99)" xlink:href="#linear-gradient-9"/>
    <clipPath id="clippath-13">
      <polygon class="cls-1" points="476.01 133.35 490.59 163.33 504.53 137.2 489.94 107.22 476.01 133.35"/>
    </clipPath>
    <linearGradient id="linear-gradient-14" x1="-139.77" y1="183.68" x2="-138.77" y2="183.68" gradientTransform="translate(-3180.38 -4711.4) rotate(-180) scale(26.39 -26.39)" xlink:href="#linear-gradient"/>
    <clipPath id="clippath-14">
      <polygon class="cls-1" points="462.46 156.75 448.6 182.73 448.6 182.74 449.02 182.74 490.8 171.57 504.75 145.46 504.75 145.46 462.46 156.75"/>
    </clipPath>
    <linearGradient id="linear-gradient-15" x1="-144.8" y1="180.4" x2="-143.8" y2="180.4" gradientTransform="translate(-5920.64 5280) rotate(90) scale(35.46 -35.46)" xlink:href="#linear-gradient-4"/>
    <clipPath id="clippath-15">
      <polygon class="cls-1" points="429.92 139.2 448.47 182.74 448.6 182.74 462.46 156.75 443.85 113.06 429.92 139.2"/>
    </clipPath>
    <linearGradient id="linear-gradient-16" x1="-144.49" y1="185.63" x2="-143.49" y2="185.63" gradientTransform="translate(-7541.72 -10153.07) rotate(180) scale(55.49 -55.49)" xlink:href="#linear-gradient-9"/>
    <clipPath id="clippath-16">
      <polygon class="cls-1" points="415.78 156.55 401.85 182.65 401.85 182.66 437.57 173.12 451.52 147 451.51 146.99 415.78 156.55"/>
    </clipPath>
    <linearGradient id="linear-gradient-17" x1="-140.52" y1="177.36" x2="-139.52" y2="177.36" gradientTransform="translate(-3111.37 2957.31) rotate(90) scale(19.95 -19.95)" xlink:href="#linear-gradient-3"/>
    <clipPath id="clippath-17">
      <polygon class="cls-1" points="389.44 147.97 401.85 182.66 415.78 156.55 403.38 121.85 389.44 147.97"/>
    </clipPath>
    <linearGradient id="linear-gradient-18" x1="-141.82" y1="185.92" x2="-140.82" y2="185.92" gradientTransform="translate(-4523.11 -6334.45) rotate(180) scale(34.89 -34.89)" xlink:href="#linear-gradient"/>
    <clipPath id="clippath-18">
      <path class="cls-1" d="M389.55,38.37c-5.73.41-11.57.81-17.51,1.23,1.63,4.62,3.3,9.27,5,14,1.72,4.82,3.48,9.72,5.26,14.7,6.13-.75,12.16-1.5,18.05-2.22,5.77-.7,11.44-1.38,16.99-2.07-1.95-4.65-3.87-9.21-5.77-13.7-1.85-4.43-3.69-8.8-5.51-13.11-5.4.39-10.91.78-16.5,1.17"/>
    </clipPath>
    <linearGradient id="linear-gradient-19" x1="-142.84" y1="184.98" x2="-141.84" y2="184.98" gradientTransform="translate(-5337.39 -7397.51) rotate(-180) scale(40.28 -40.28)" gradientUnits="userSpaceOnUse">
      <stop offset="0" stop-color="#00bdeb"/>
      <stop offset=".15" stop-color="#1fc5ed"/>
      <stop offset=".47" stop-color="#6ed9f3"/>
      <stop offset=".94" stop-color="#edfafd"/>
      <stop offset="1" stop-color="#fff"/>
    </linearGradient>
    <clipPath id="clippath-19">
      <path class="cls-1" d="M468.52,33.49c-4.41.31-8.89.61-13.46.96,1.94,3.96,3.9,7.98,5.89,12.04,2.01,4.14,4.06,8.32,6.13,12.57,4.65-.56,9.22-1.11,13.7-1.66,4.4-.52,8.73-1.05,13-1.55-2.14-4.01-4.27-7.96-6.35-11.84-2.07-3.85-4.1-7.64-6.1-11.4-4.2.29-8.47.59-12.8.89"/>
    </clipPath>
    <linearGradient id="linear-gradient-20" x1="-141.47" y1="184.96" x2="-140.47" y2="184.96" gradientTransform="translate(-4181.15 -6063.63) rotate(180) scale(33.03 -33.03)" xlink:href="#linear-gradient-19"/>
  </defs>
  <path class="cls-12" d="M328.44,146.98h-29.89l-34.03-47.57c-3.28,1.84-4.91,6.58-4.91,14.22v33.35h-27.56v-27.66c0-15.52,5.78-25.25,17.34-29.16h7.64l-26.4-33.33v-2.67h30.77l30.41,40.36c3.03-2.55,4.53-8.05,4.53-16.54v-23.82h27.39v19.65c0,16.59-6.2,26.67-18.59,30.22h-6.58l29.89,40.37v2.58ZM220.52,146.98h-28.36V54.15h28.36v92.83ZM177.56,146.98h-28.35v-43.74c0-9.08-2.17-15.91-6.49-20.55-4.33-4.62-10.05-6.94-17.16-6.94-9.49,0-17.4,2.43-23.74,7.3h-1.07v-23.83c6.46-4.16,16.66-6.2,30.58-6.2s24.33,3.92,32.64,11.81c9.06,8.65,13.59,20.92,13.59,36.8v45.36ZM88.68,146.98h-28.37V54.15h28.37v92.83ZM44.43,183.43h-28.36V54.15h28.36v129.28Z"/>
  <path class="cls-12" d="M330.25,182.15c.08.14.12.23.12.33,0,.2-.08.32-.23.32h-3.01c-1.46-2.09-3.44-4.8-5.92-8.11-.41-.5-.75-.74-1.02-.74-.46,0-.83.34-1.13,1.05-.36.79-.53,1.84-.53,3.17v4.63h-3.09v-2.88c0-3.61,1.32-6.16,3.94-7.63l-4.24-5.16c-.14-.14-.19-.26-.19-.36,0-.13.1-.21.31-.21h3.14c1.46,1.9,3.39,4.36,5.75,7.38.19.24.33.34.49.34,1.05,0,1.56-1.36,1.56-4.07v-3.65h3.09v3.04c0,2.83-1.24,4.91-3.74,6.25,1.18,1.53,2.74,3.64,4.69,6.29M311.97,182.81h-3.14v-10.08c0-2.66-1.22-4-3.67-4h-3.58v14.08h-3.14v-15.44c0-.53.24-.79.72-.79h7.27c3.7,0,5.55,1.9,5.55,5.69v10.54ZM295.56,166.58c-.02.6-.27,1.28-.8,2.08-1.79,0-2.68,1.18-2.68,3.54,0,.55.04,1.18.12,1.92l.91,8.69h-3.19l-.75-8.21c-.03-.32-.03-.58-.03-.87,0-2.48.8-4.14,2.41-5h-4.14c-.07-.43-.09-.83-.09-1.2,0-.16.02-.46.06-.95h8.16ZM273.73,187.51h-3.17v-14.14c1.06-.73,2.13-1.07,3.17-1.04v15.18ZM278.22,166.58c4.22,0,6.3,2.08,6.3,6.2,0,2.78-.8,5.16-2.41,7.13-1.59,1.97-3.53,3.01-5.82,3.15-.08-.32-.08-.97,0-1.97,1.67-.33,2.96-1.3,3.84-2.9.8-1.4,1.19-3.17,1.19-5.26,0-2.78-1.37-4.19-4.13-4.19h-6.84c-.07-.43-.1-.78-.1-1,0-.4.04-.79.1-1.14h7.87ZM266.66,182.81h-3.17v-16.23h3.17v16.23ZM259.95,182.81h-3.18v-10.39c0-2.47-1.12-3.69-3.36-3.69h-3.7v10.11c0,1.45-.46,2.57-1.35,3.32-.77.6-1.73.9-2.9.9-.64,0-1.15-.14-1.51-.38,0-.82.04-1.47.15-1.93.34.14.64.21.88.21.42,0,.78-.17,1.09-.51.31-.36.46-.87.46-1.51v-11.72c0-.42.24-.64.71-.64h7.3c3.6,0,5.41,1.8,5.41,5.38v10.85ZM233.22,182.81h-3.17v-16.23h3.17v16.23ZM216.53,182.81h-3.14v-9.38c.71-.35,1.76-.59,3.14-.71v10.08ZM226.51,182.81h-3.14v-10.28c0-2.52-1.22-3.8-3.69-3.8h-6.29c-.04-.35-.07-.7-.07-1.03,0-.37.02-.74.07-1.12h7.24c3.92,0,5.88,1.9,5.88,5.69v10.54ZM209.9,174.75c0,3.7-1.44,6.18-4.3,7.4-1.23.53-2.85.81-4.84.81-2.26,0-4.01-.41-5.27-1.24-1.77-1.14-2.67-3.19-2.67-6.17v-8.99h3.16v9.72c0,.38.2.53.63.43,2.07-.45,3.1-1.99,3.1-4.59v-5.56h3.11v4.82c0,1.68-.34,3.04-1,4.03-1.11,1.69-2.91,2.67-5.44,2.94.33.81.68,1.34,1.07,1.6.88.58,1.96.87,3.23.87,1.55,0,2.79-.22,3.68-.65,1.58-.76,2.36-2.46,2.36-5.02v-8.58h3.17v8.18ZM178.9,187.51h-3.17v-14.14c1.05-.73,2.11-1.07,3.17-1.04v15.18ZM183.39,166.58c4.19,0,6.29,2.08,6.29,6.2,0,2.78-.8,5.16-2.4,7.13-1.61,1.97-3.55,3.01-5.83,3.15-.08-.32-.08-.97,0-1.97,1.69-.33,2.96-1.3,3.85-2.9.78-1.4,1.18-3.17,1.18-5.26,0-2.78-1.38-4.19-4.14-4.19h-6.84c-.07-.43-.1-.78-.1-1,0-.4.04-.79.1-1.14h7.89ZM171.86,174.91c0,2.53-.65,4.47-1.94,5.84-1.3,1.37-3.21,2.06-5.68,2.06h-6.59c-.08-.89-.07-1.58.03-2.11h3.82l-3.14-13.9c-.03-.13,0-.22.13-.22h3.16c.87,4.58,1.77,9.26,2.72,14.07,2.91,0,4.37-1.55,4.37-4.63v-9.44h3.12v8.34ZM154.74,182.81h-3.18v-16.23h3.18v16.23ZM148.03,182.81h-3.18v-10.39c0-2.47-1.11-3.69-3.35-3.69h-3.7v10.11c0,1.45-.46,2.57-1.37,3.32-.75.6-1.71.9-2.88.9-.64,0-1.14-.14-1.51-.38,0-.82.06-1.47.16-1.93.34.14.64.21.88.21.41,0,.79-.17,1.09-.51.3-.36.46-.87.46-1.51v-11.72c0-.42.23-.64.71-.64h7.3c3.58,0,5.39,1.8,5.39,5.38v10.85ZM122.25,180.69c.05.43.09.74.09.94,0,.28-.03.66-.07,1.18h-13.34c-.04-.43-.06-.76-.06-.99,0-.14.01-.5.06-1.12h5.21c1.51,0,2.51-.55,3.03-1.67.39-.85.59-2.33.59-4.44,0-1.95-.29-3.38-.87-4.27-.67-1.06-1.85-1.59-3.51-1.59h-4.19c-.06-.38-.09-.74-.09-1.14,0,.18.04-.15.09-1.01h5.31c2.35,0,4.05.66,5.11,1.99.96,1.21,1.44,3.08,1.44,5.58,0,3.24-.8,5.42-2.45,6.54h3.66ZM106,174.91c0,2.53-.66,4.47-1.95,5.84-1.3,1.37-3.19,2.06-5.68,2.06h-6.58c-.09-.89-.08-1.58.02-2.11h3.82l-3.14-13.9c-.04-.13,0-.22.14-.22h3.17c.86,4.58,1.77,9.26,2.71,14.07,2.93,0,4.37-1.55,4.37-4.63v-9.44h3.13v8.34ZM87.88,170.37c-.77-.42-1.49-1.04-2.16-1.84.98-2.18,2.17-3.93,3.56-5.2.25.24.61.67,1.06,1.29-.68,1.15-1.06,1.89-1.21,2.17-.51,1.06-.94,2.23-1.3,3.53l.04.04ZM83.97,170.37c-.78-.42-1.5-1.04-2.17-1.84,1-2.18,2.17-3.93,3.55-5.2.28.24.65.67,1.08,1.29-.68,1.15-1.08,1.89-1.2,2.17-.52,1.06-.94,2.23-1.27,3.53v.04ZM79.71,175c0,2.54-.62,4.51-1.88,5.91-1.24,1.42-3.03,2.11-5.32,2.11-.96,0-1.77-.1-2.49-.29.04-.79.16-1.47.36-2.04.45.21,1.06.3,1.84.3,2.81,0,4.24-2,4.24-5.99,0-4.25-1.38-6.37-4.11-6.37-1.38,0-2.4.44-3.05,1.35-.64.91-1.14,2.62-1.48,5.12l-1,7.72h-3.1l1.03-7.47c.24-1.84.59-3.29,1.04-4.31.46-1.02,1.14-1.8,2.02-2.31h-3.82c-.05-.56-.07-.88-.07-.97,0-.25.01-.65.07-1.18h8.92c2.13,0,3.8.73,4.98,2.15,1.2,1.42,1.8,3.49,1.8,6.27"/>
  <g>
    <g class="cls-44">
      <rect class="cls-11" x="426.25" y="40.73" width="55.72" height="38.19" transform="translate(278.79 482.97) rotate(-75)"/>
    </g>
    <g class="cls-23">
      <rect class="cls-10" x="407.72" y="12.35" width="55.62" height="65.39" transform="translate(230.62 431.98) rotate(-68)"/>
    </g>
    <g class="cls-26">
      <rect class="cls-9" x="450.21" y="51.37" width="46.51" height="38.29" transform="translate(-2.99 116.64) rotate(-14)"/>
    </g>
    <g class="cls-24">
      <rect class="cls-8" x="437.96" y="70.68" width="68.31" height="46.58" transform="translate(259.16 525.68) rotate(-75)"/>
    </g>
    <g class="cls-25">
      <rect class="cls-5" x="468.53" y="46.29" width="57.2" height="64.72" transform="translate(245.55 514.57) rotate(-69)"/>
    </g>
    <g class="cls-31">
      <rect class="cls-6" x="489.87" y="124.14" width="46.56" height="43.42" transform="translate(-17.75 198.22) rotate(-21.5)"/>
    </g>
    <g class="cls-28">
      <rect class="cls-4" x="469.37" y="83.2" width="59.23" height="50.94" transform="translate(.83 221.06) rotate(-25)"/>
    </g>
    <g class="cls-27">
      <rect class="cls-3" x="404.82" y="47.49" width="62.48" height="53.97" transform="translate(21.18 228.01) rotate(-30)"/>
    </g>
    <g class="cls-30">
      <rect class="cls-7" x="374.56" y="33.33" width="67.7" height="52.09" transform="translate(181.99 404.43) rotate(-65)"/>
    </g>
    <g class="cls-29">
      <rect class="cls-33" x="369.46" y="95.72" width="71.02" height="61.3" transform="translate(-8.93 219.42) rotate(-30)"/>
    </g>
    <g class="cls-18">
      <rect class="cls-34" x="364.17" y="54.83" width="57.35" height="48.8" transform="translate(5.03 180.23) rotate(-26)"/>
    </g>
    <g class="cls-15">
      <rect class="cls-35" x="340.39" y="46.34" width="59.75" height="41.36" transform="translate(180.65 392.03) rotate(-70)"/>
    </g>
    <g class="cls-22">
      <rect class="cls-36" x="336.27" y="82.44" width="74.46" height="54.46" transform="translate(121.4 406.27) rotate(-66)"/>
    </g>
    <g class="cls-20">
      <rect class="cls-38" x="459.72" y="115.07" width="61.09" height="40.41" transform="translate(248.17 582.55) rotate(-77)"/>
    </g>
    <g class="cls-21">
      <rect class="cls-40" x="443.2" y="134.74" width="66.95" height="58.71" transform="translate(-22.54 234.29) rotate(-27)"/>
    </g>
    <g class="cls-19">
      <rect class="cls-41" x="407.75" y="118.01" width="76.89" height="59.78" transform="translate(117.66 484.1) rotate(-64)"/>
    </g>
    <g class="cls-16">
      <rect class="cls-42" x="397.11" y="139.28" width="59.15" height="51.09" transform="translate(-30.73 163.86) rotate(-21)"/>
    </g>
    <g class="cls-13">
      <rect class="cls-43" x="369.54" y="126.72" width="66.13" height="51.07" transform="translate(84.17 441.86) rotate(-63)"/>
    </g>
    <path class="cls-32" d="M372.9,75.4c8.12-1.05,16.11-2.1,23.93-3.11,7.63-.99,15.12-1.95,22.48-2.91,2.66,6.33,5.33,12.72,8.06,19.23,2.77,6.61,5.59,13.35,8.46,20.18-7.55,1.4-15.24,2.87-23.1,4.36-8.04,1.51-16.29,3.07-24.67,4.67-2.64-7.39-5.22-14.64-7.77-21.77-2.49-6.99-4.96-13.88-7.38-20.66"/>
    <path class="cls-32" d="M443.85,113.06c7.28-1.44,14.39-2.83,21.36-4.21,6.83-1.32,13.51-2.64,20.07-3.92,3.12,6.49,6.29,13.08,9.5,19.78,3.27,6.8,6.6,13.74,9.96,20.75-6.71,1.8-13.51,3.61-20.46,5.46-7.13,1.91-14.4,3.85-21.83,5.83-3.23-7.57-6.41-15.04-9.53-22.37-3.07-7.24-6.1-14.32-9.07-21.31"/>
    <path class="cls-2" d="M403.38,121.85c6.11-1.21,12.1-2.4,17.96-3.55,5.71-1.13,11.31-2.24,16.79-3.31,2.15,5.11,4.32,10.3,6.54,15.59,2.24,5.38,4.53,10.87,6.86,16.41-5.63,1.51-11.38,3.04-17.25,4.6-6.03,1.62-12.19,3.27-18.49,4.96-2.16-6.05-4.3-11.98-6.37-17.82-2.05-5.72-4.05-11.36-6.03-16.88"/>
    <path class="cls-2" d="M489.94,107.22c4.71-.92,9.33-1.83,13.87-2.72,4.45-.88,8.84-1.73,13.14-2.57,2.41,4.5,4.86,9.05,7.34,13.66,2.51,4.69,5.05,9.45,7.65,14.28-4.36,1.16-8.79,2.34-13.3,3.55-4.6,1.22-9.31,2.48-14.11,3.77-2.53-5.2-5.01-10.3-7.48-15.34-2.4-4.95-4.77-9.83-7.11-14.64"/>
    <g class="cls-17">
      <rect class="cls-37" x="372.61" y="26.28" width="44.15" height="52.96" transform="translate(216.31 408.76) rotate(-71)"/>
    </g>
    <g class="cls-14">
      <rect class="cls-39" x="455.37" y="23.12" width="38.1" height="45.42" transform="translate(269.09 475.96) rotate(-70)"/>
    </g>
  </g>
</svg>